<svg width="96" height="96" xmlns="http://www.w3.org/2000/svg" xmlns:xlink="http://www.w3.org/1999/xlink" overflow="hidden"><defs><clipPath id="clip0"><rect x="830" y="486" width="96" height="96"/></clipPath></defs><g clip-path="url(#clip0)" transform="translate(-830 -486)"><path d="M13.2 20.6 33.75 48 13.2 75.4 14.8 76.6 36.25 48 14.8 19.4 13.2 20.6Z" fill="#FFFFFF" transform="matrix(-1 0 0 1 926 486)"/><path d="M37.2 20.6 57.75 48 37.2 75.4 38.8 76.6 60.25 48 38.8 19.4 37.2 20.6Z" fill="#FFFFFF" transform="matrix(-1 0 0 1 926 486)"/><path d="M61.2 20.6 81.75 48 61.2 75.4 62.8 76.6 84.25 48 62.8 19.4 61.2 20.6Z" fill="#FFFFFF" transform="matrix(-1 0 0 1 926 486)"/></g></svg>